<svg width="163" height="99" viewBox="0 0 163 99" fill="none" xmlns="http://www.w3.org/2000/svg">
<path fill-rule="evenodd" clip-rule="evenodd" d="M99.2936 55.9876C99.3735 55.4167 99.7256 54.8942 100.282 54.6205C100.554 54.4865 100.844 54.4276 101.127 54.4358C101.411 54.4276 101.7 54.4865 101.973 54.6205C102.529 54.8942 102.881 55.4167 102.961 55.9876L122.628 95.9431C123.067 96.8351 122.7 97.914 121.808 98.353C120.916 98.7921 119.837 98.4249 119.398 97.533L101.127 60.4141L82.8563 97.533C82.4173 98.4249 81.3383 98.7921 80.4464 98.353C79.5545 97.914 79.1873 96.8351 79.6264 95.9431L99.2936 55.9876Z" fill="#BBBCBC"/>
<path fill-rule="evenodd" clip-rule="evenodd" d="M127.091 96.7386C127.091 97.7327 127.897 98.5386 128.891 98.5386C129.885 98.5386 130.691 97.7327 130.691 96.7386V61.7851L158.659 97.3954C158.921 98.0647 159.573 98.5386 160.335 98.5386C161.247 98.5386 162.001 97.8605 162.119 96.981C162.242 96.6094 162.25 96.2047 162.135 95.8248V56.1672C162.135 55.1731 161.329 54.3672 160.335 54.3672C159.341 54.3672 158.535 55.1731 158.535 56.1672V91.028L130.578 55.4319C130.545 55.3892 130.51 55.3483 130.474 55.3092C130.169 54.7481 129.574 54.3672 128.891 54.3672C127.897 54.3672 127.091 55.1731 127.091 56.1672V96.7386Z" fill="#BBBCBC"/>
<path fill-rule="evenodd" clip-rule="evenodd" d="M41.8056 54.3672C40.8115 54.3672 40.0056 55.1731 40.0056 56.1672V96.7386C40.0056 97.7327 40.8115 98.5386 41.8056 98.5386C41.9122 98.5386 42.0166 98.5293 42.1181 98.5116C42.2196 98.5293 42.324 98.5386 42.4305 98.5386H73.4361C74.4302 98.5386 75.2361 97.7327 75.2361 96.7386C75.2361 95.7445 74.4302 94.9386 73.4361 94.9386H43.6056V56.1672C43.6056 55.1731 42.7997 54.3672 41.8056 54.3672Z" fill="#BBBCBC"/>
<path fill-rule="evenodd" clip-rule="evenodd" d="M33.1067 54.6516C33.9422 54.113 35.0562 54.3537 35.5948 55.1892C36.1335 56.0248 35.8928 57.1387 35.0572 57.6774L5.98147 76.4207L35.0645 95.1883C35.8998 95.7273 36.1399 96.8414 35.6009 97.6767C35.0619 98.512 33.9478 98.7522 33.1125 98.2132L4.43911 79.7099V96.7385C4.43911 97.7326 3.63322 98.5385 2.63911 98.5385C1.645 98.5385 0.839111 97.7326 0.839111 96.7385V56.1671C0.839111 55.173 1.645 54.3671 2.63911 54.3671C3.63322 54.3671 4.43911 55.173 4.43911 56.1671V73.1318L33.1067 54.6516Z" fill="#BBBCBC"/>
<path d="M108.009 2.57808C108.009 1.58396 108.815 0.778076 109.809 0.778076V0.778076C110.803 0.778076 111.609 1.58396 111.609 2.57808V40.6416C111.609 41.6357 110.803 42.4416 109.809 42.4416V42.4416C108.815 42.4416 108.009 41.6357 108.009 40.6416V2.57808Z" fill="white"/>
<path d="M115.347 2.57808C115.347 1.58396 116.153 0.778076 117.147 0.778076V0.778076C118.141 0.778076 118.947 1.58396 118.947 2.57808V40.6416C118.947 41.6357 118.141 42.4416 117.147 42.4416V42.4416C116.153 42.4416 115.347 41.6357 115.347 40.6416V2.57808Z" fill="white"/>
<path fill-rule="evenodd" clip-rule="evenodd" d="M142.378 2.11789C141.693 2.09292 141.023 2.46322 140.699 3.11793L122.502 39.842C122.061 40.7328 122.425 41.8127 123.316 42.2541C124.207 42.6954 125.287 42.3311 125.728 41.4404L142.378 7.83696L159.029 41.4404C159.47 42.3311 160.55 42.6954 161.441 42.2541C162.331 41.8127 162.696 40.7328 162.254 39.842L144.058 3.11793C143.733 2.46322 143.064 2.09292 142.378 2.11789Z" fill="white"/>
<path fill-rule="evenodd" clip-rule="evenodd" d="M74.0688 2.0708C73.0747 2.0708 72.2688 2.87669 72.2688 3.8708V40.6414C72.2688 41.6355 73.0747 42.4414 74.0688 42.4414H102.954C103.949 42.4414 104.754 41.6355 104.754 40.6414C104.754 39.6473 103.949 38.8414 102.954 38.8414H75.8688V3.8708C75.8688 2.87669 75.0629 2.0708 74.0688 2.0708Z" fill="white"/>
<path fill-rule="evenodd" clip-rule="evenodd" d="M18.4379 22.8986L32.6889 4.99504C33.308 4.21725 33.1793 3.08483 32.4015 2.46572C31.6237 1.84661 30.4913 1.97525 29.8722 2.75305L16.7648 19.2201L3.65736 2.75305C3.03825 1.97525 1.90584 1.84661 1.12805 2.46572C0.350253 3.08483 0.221614 4.21725 0.840723 4.99504L14.8379 22.5799V40.6415C14.8379 41.6356 15.6438 42.4415 16.6379 42.4415C17.632 42.4415 18.4379 41.6356 18.4379 40.6415V22.8986Z" fill="white"/>
<path fill-rule="evenodd" clip-rule="evenodd" d="M36.4055 3.9355C36.4055 2.94139 37.2114 2.1355 38.2055 2.1355C39.1996 2.1355 40.0055 2.94139 40.0055 3.9355V24.3263C40.0055 24.4232 39.9979 24.5182 39.9831 24.6109H40.0112C40.0074 24.7515 40.0055 24.8928 40.0055 25.0347C40.0055 32.9056 45.8886 38.8415 52.6162 38.8415C59.3438 38.8415 65.2269 32.9056 65.2269 25.0347C65.2269 24.8928 65.225 24.7515 65.2212 24.6109H65.2493C65.2346 24.5182 65.2269 24.4232 65.2269 24.3263V3.9355C65.2269 2.94139 66.0328 2.1355 67.0269 2.1355C68.021 2.1355 68.8269 2.94139 68.8269 3.9355V24.3263C68.8269 24.4232 68.8193 24.5182 68.8045 24.6109H68.8222C68.8253 24.7518 68.8269 24.893 68.8269 25.0347C68.8269 34.6482 61.5691 42.4415 52.6162 42.4415C43.6633 42.4415 36.4055 34.6482 36.4055 25.0347C36.4055 24.893 36.4071 24.7518 36.4102 24.6109H36.4279C36.4132 24.5182 36.4055 24.4232 36.4055 24.3263V3.9355Z" fill="white"/>
</svg>
